<svg xmlns="http://www.w3.org/2000/svg" version="1.1" xmlns:xlink="http://www.w3.org/1999/xlink" xmlns:svgjs="http://svgjs.com/svgjs" width="512" height="512" x="0" y="0" viewBox="0 0 682.667 682.667" style="enable-background:new 0 0 512 512" xml:space="preserve" class=""><g><defs><clipPath id="a" clipPathUnits="userSpaceOnUse"><path d="M0 512h512V0H0Z" fill="#00fc8b" data-original="#000000"></path></clipPath></defs><g clip-path="url(#a)" transform="matrix(1.33333 0 0 -1.33333 0 682.667)"><path d="M0 0v37.928C0 51.25 16.045 62.957 35.463 69.59m70.299.709c20.351-6.49 37.644-18.539 37.644-32.371V0" style="stroke-width:14.995;stroke-linecap:round;stroke-linejoin:round;stroke-miterlimit:10;stroke-dasharray:none;stroke-opacity:1" transform="translate(184.297 116.805)" fill="none" stroke="#00fc8b" stroke-width="14.995" stroke-linecap="round" stroke-linejoin="round" stroke-miterlimit="10" stroke-dasharray="none" stroke-opacity="" data-original="#000000" class=""></path><path d="M109.15 15.664h293.67v58.508H109.15Z" style="stroke-width:14.995;stroke-linecap:round;stroke-linejoin:round;stroke-miterlimit:10;stroke-dasharray:none;stroke-opacity:1" fill="none" stroke="#00fc8b" stroke-width="14.995" stroke-linecap="round" stroke-linejoin="round" stroke-miterlimit="10" stroke-dasharray="none" stroke-opacity="" data-original="#000000" class=""></path><path d="M0 0v50.57c0 13.918 10.375 25.569 23.783 27.553M101.65-9.156v-75.373H0v50.57" style="stroke-width:14.995;stroke-linecap:round;stroke-linejoin:round;stroke-miterlimit:10;stroke-dasharray:none;stroke-opacity:1" transform="translate(7.5 100.193)" fill="none" stroke="#00fc8b" stroke-width="14.995" stroke-linecap="round" stroke-linejoin="round" stroke-miterlimit="10" stroke-dasharray="none" stroke-opacity="" data-original="#000000" class=""></path><path d="M0 0v50.57c0 13.748-10.121 25.256-23.273 27.467M-101.68-9.156v-75.373H0v50.57" style="stroke-width:14.995;stroke-linecap:round;stroke-linejoin:round;stroke-miterlimit:10;stroke-dasharray:none;stroke-opacity:1" transform="translate(504.5 100.193)" fill="none" stroke="#00fc8b" stroke-width="14.995" stroke-linecap="round" stroke-linejoin="round" stroke-miterlimit="10" stroke-dasharray="none" stroke-opacity="" data-original="#000000" class=""></path><path d="M0 0c6.377-.057 12.67-2.977 16.809-8.447l40.279-53.348h51.648c11.764 0 21.317-9.553 21.317-21.316 0-11.793-9.553-21.317-21.317-21.317h-62.22a21.262 21.262 0 0 0-16.981 8.475L-3.715-51.93" style="stroke-width:14.995;stroke-linecap:round;stroke-linejoin:round;stroke-miterlimit:10;stroke-dasharray:none;stroke-opacity:1" transform="translate(85.965 178.6)" fill="none" stroke="#00fc8b" stroke-width="14.995" stroke-linecap="round" stroke-linejoin="round" stroke-miterlimit="10" stroke-dasharray="none" stroke-opacity="" data-original="#000000" class=""></path><path d="M0 0c-6.775.283-13.578-2.637-17.971-8.447l-40.281-53.348h-51.619c-11.791 0-21.344-9.553-21.344-21.316 0-11.793 9.553-21.317 21.344-21.317h62.193a21.313 21.313 0 0 1 17.008 8.475L2.551-51.93" style="stroke-width:14.995;stroke-linecap:round;stroke-linejoin:round;stroke-miterlimit:10;stroke-dasharray:none;stroke-opacity:1" transform="translate(427.17 178.6)" fill="none" stroke="#00fc8b" stroke-width="14.995" stroke-linecap="round" stroke-linejoin="round" stroke-miterlimit="10" stroke-dasharray="none" stroke-opacity="" data-original="#000000" class=""></path><path d="M0 0h128.467c20.89 0 37.984 17.092 37.984 37.984v84.018c0 20.863-17.094 37.957-37.984 37.957H-36.17c-20.893 0-37.984-17.094-37.984-37.957V37.984C-74.154 17.092-57.063 0-36.17 0v-36.17z" style="stroke-width:14.995;stroke-linecap:round;stroke-linejoin:round;stroke-miterlimit:10;stroke-dasharray:none;stroke-opacity:1" transform="translate(85.766 336.377)" fill="none" stroke="#00fc8b" stroke-width="14.995" stroke-linecap="round" stroke-linejoin="round" stroke-miterlimit="10" stroke-dasharray="none" stroke-opacity="" data-original="#000000" class=""></path><path d="M0 0h44.078l36.17-36.17V0C95.98 0 108.85 12.898 108.85 28.631v72.226c0 15.733-12.87 28.602-28.602 28.602H-54.623m-52.045-100.602C-106.668 12.982-93.969 0-78.039 0h44.08" style="stroke-width:14.995;stroke-linecap:round;stroke-linejoin:round;stroke-miterlimit:10;stroke-dasharray:none;stroke-opacity:1" transform="translate(306.84 307.52)" fill="none" stroke="#00fc8b" stroke-width="14.995" stroke-linecap="round" stroke-linejoin="round" stroke-miterlimit="10" stroke-dasharray="none" stroke-opacity="" data-original="#000000" class=""></path><path d="M0 0h138.842M0-39.457h69.422M0 39.459h138.842" style="stroke-width:14.995;stroke-linecap:round;stroke-linejoin:round;stroke-miterlimit:10;stroke-dasharray:none;stroke-opacity:1" transform="translate(62.492 416.37)" fill="none" stroke="#00fc8b" stroke-width="14.995" stroke-linecap="round" stroke-linejoin="round" stroke-miterlimit="10" stroke-dasharray="none" stroke-opacity="" data-original="#000000" class=""></path><path d="M0 0c0-22.252-18.227-40.479-40.479-40.479-22.251 0-40.478 18.227-40.478 40.479v43.371c0 12.471 10.205 22.649 22.678 22.649H0Z" style="stroke-width:14.995;stroke-linecap:round;stroke-linejoin:round;stroke-miterlimit:10;stroke-dasharray:none;stroke-opacity:1" transform="translate(295.103 209.242)" fill="none" stroke="#00fc8b" stroke-width="14.995" stroke-linecap="round" stroke-linejoin="round" stroke-miterlimit="10" stroke-dasharray="none" stroke-opacity="" data-original="#000000" class=""></path><path d="M0 0c0-22.252 18.227-40.479 40.479-40.479C62.73-40.479 80.957-22.252 80.957 0v43.371c0 12.471-10.205 22.649-22.648 22.649H22.648C10.205 66.02 0 55.842 0 43.371Z" style="stroke-width:14.995;stroke-linecap:round;stroke-linejoin:round;stroke-miterlimit:10;stroke-dasharray:none;stroke-opacity:1" transform="translate(17.848 209.242)" fill="none" stroke="#00fc8b" stroke-width="14.995" stroke-linecap="round" stroke-linejoin="round" stroke-miterlimit="10" stroke-dasharray="none" stroke-opacity="" data-original="#000000" class=""></path><path d="M0 0c0-22.252-18.199-40.479-40.451-40.479C-62.73-40.479-80.93-22.252-80.93 0v43.371c0 12.471 10.176 22.649 22.649 22.649h35.633C-10.178 66.02 0 55.842 0 43.371Z" style="stroke-width:14.995;stroke-linecap:round;stroke-linejoin:round;stroke-miterlimit:10;stroke-dasharray:none;stroke-opacity:1" transform="translate(494.125 209.242)" fill="none" stroke="#00fc8b" stroke-width="14.995" stroke-linecap="round" stroke-linejoin="round" stroke-miterlimit="10" stroke-dasharray="none" stroke-opacity="" data-original="#000000" class=""></path><path d="M0 0c38.834-11.934 48.473 12.559 49.605 34.951 0 0 13.438-12.556 31.352-5.924" style="stroke-width:14.995;stroke-linecap:round;stroke-linejoin:round;stroke-miterlimit:10;stroke-dasharray:none;stroke-opacity:1" transform="translate(17.848 207.824)" fill="none" stroke="#00fc8b" stroke-width="14.995" stroke-linecap="round" stroke-linejoin="round" stroke-miterlimit="10" stroke-dasharray="none" stroke-opacity="" data-original="#000000" class=""></path><path d="M0 0c-38.836-11.934-48.473 12.559-49.578 34.951 0 0-13.465-12.556-31.352-5.924" style="stroke-width:14.995;stroke-linecap:round;stroke-linejoin:round;stroke-miterlimit:10;stroke-dasharray:none;stroke-opacity:1" transform="translate(494.125 207.824)" fill="none" stroke="#00fc8b" stroke-width="14.995" stroke-linecap="round" stroke-linejoin="round" stroke-miterlimit="10" stroke-dasharray="none" stroke-opacity="" data-original="#000000" class=""></path><path d="M0 0h80.957" style="stroke-width:14.995;stroke-linecap:round;stroke-linejoin:round;stroke-miterlimit:10;stroke-dasharray:none;stroke-opacity:1" transform="translate(214.147 239.545)" fill="none" stroke="#00fc8b" stroke-width="14.995" stroke-linecap="round" stroke-linejoin="round" stroke-miterlimit="10" stroke-dasharray="none" stroke-opacity="" data-original="#000000" class=""></path></g></g></svg>