<svg xmlns="http://www.w3.org/2000/svg" version="1.1" xmlns:xlink="http://www.w3.org/1999/xlink" xmlns:svgjs="http://svgjs.com/svgjs" width="512" height="512" x="0" y="0" viewBox="0 0 682 682.666" style="enable-background:new 0 0 512 512" xml:space="preserve" class=""><g><path d="M630.203 74.59c-9.246-29.078-21.777-49.899-22.308-50.774-2.055-3.386-6.286-5.148-10.118-4.27-.992.227-24.656 5.75-51.953 19.384-36.851 18.398-62.594 42.96-74.453 71.02-9.871 23.366-11.289 51.933-4.285 83.491-14.918-16.66-31.7-31.234-49.992-43.504-5.586-11.035-20.356-38.203-43.446-66.597-7.605-9.348-22.234 2.383-14.55 11.824 15.558 19.137 27.27 37.957 34.593 50.887l-85.402-16.649-81.14-110.675c7.878.109 15.785.87 23.652 2.414 24.941 4.882 49.578 17.586 73.238 37.75 9.27 7.902 21.309-6.48 12.16-14.274-26.136-22.273-53.656-36.367-81.797-41.879-42.957-8.406-93.058 2.63-144.902 31.926C70.86 56.5 45.02 80.484 43.941 81.492c-3.457 3.23-4.007 9.098-1.113 12.871 3.79 7.774 18.149 35.817 42.05 66.008 14.09 17.8 28.95 33.035 44.321 45.555a221.99 221.99 0 0 0-12.73 11.515c-21.969 21.489-38.79 46.836-49.832 74.547-9.762 24.485-15.012 50.825-15.305 77.973-.484 44.394 12.379 87.21 37.207 123.828 24.254 35.766 58.16 63.227 98.05 79.41 11.165 4.52 18.224-12.844 7.052-17.375a197.935 197.935 0 0 1-40.555-22.308c1.602-8.883 5.316-40.852-15.918-73.946-2.973-4.629 5.914-22.808 11.219-33.668 5.476-11.191 11.129-22.761 13.77-33.656 2.804-11.574-.352-21.289-9.122-28.105-6.437-5.004-14.863-7.594-22.289-9.88-4.824-1.484-10.293-3.163-12.246-4.792-4.023-3.371-10.594-15.828-15.875-25.832-5.86-11.098-11.437-21.66-17.133-28.164 12.817-30.438 33.403-57.371 59.184-77.977 23.55 16.043 50.43 27.113 79 29.356-33.133 25.671-43.852 58.457-28.531 89.949 17.89 36.773 54.714 30.898 87.203 25.722 5.62-.898 11.437-1.824 17.007-2.52 2.09-.26 2.72.31 3.141.68 7.113 6.329 6.902 36.551 6.75 58.622-.207 30.527-.402 59.363 10.969 74.168 5.8 7.547 13.969 11.406 23.543 11.406 5.738 0 11.972-1.383 18.512-4.188 28.277-12.109 57.671-48.554 53.187-77.39-3.918-25.211-6.512-41.867-.398-55.293 5.652-12.426 19.316-23.93 46.226-38.61a197.916 197.916 0 0 1 4.68 45.098c-.574 52.867-21.707 102.348-59.5 139.32-42.238 41.32-101.602 61.727-160.324 55.254-11.965-1.297-14.032 17.32-2.051 18.64 64.277 7.08 129.265-15.265 175.484-60.487 41.38-40.48 64.512-94.645 65.14-152.528.837-76.746-38.542-144.738-98.487-183.906 12.386-8.832 21.613-16.469 26.73-20.902 21.856 15.68 41.242 34.996 57.371 57.5 38.719 54.035 54.074 119.906 43.246 185.492C491.211 548.266 362.88 640.23 227.47 617.859c-65.59-10.832-123.032-46.55-161.75-100.586-38.723-54.03-54.078-119.91-43.246-185.492 1.945-11.8-16.543-14.898-18.496-3.054-11.653 70.527 4.867 141.367 46.496 199.472 41.636 58.098 103.414 96.512 173.941 108.164a271.304 271.304 0 0 0 44.18 3.637c55.43 0 109.351-17.21 155.3-50.137 58.114-41.636 96.532-103.402 108.176-173.93 8.535-51.68 1.93-103.527-18.586-150.41 9.47-2.793 25.582-8.214 43.23-17.027 36.845-18.398 62.59-42.96 74.446-71.02 11.867-28.066 11.535-63.644-.957-102.886zM86.04 332.387c6.977 13.226 13.574 25.726 20.43 31.46 4.855 4.06 11.613 6.137 18.765 8.337 18.325 5.632 20.453 8.398 18.696 15.644-2.157 8.91-7.36 19.55-12.387 29.836-9.684 19.813-18.828 38.516-10.16 52.031a89.17 89.17 0 0 1 14.187 49.746c-55.843-50.355-78.582-129.89-57.78-202.18 2.757 4.727 5.655 10.22 8.25 15.126zM539.652 148.14l-26.644-64.57c12.965-12.126 28.008-21.25 40.82-27.676 10.914-5.477 21.297-9.57 29.625-12.473zm61.086-97.45c3.723 8 8.04 18.317 11.727 29.977 4.043 12.797 7.754 28.656 8.492 45.2l-62.441 25.76zM488.641 117.25c2.765-6.54 6.34-12.602 10.468-18.2l30.332 73.497-27.218 65.086c-3.825-8.113-8.328-18.77-12.149-30.875-7.668-24.238-14.137-59.45-1.433-89.508zm60.066 114.281c-10.504 5.274-20.527 9.266-28.691 12.145l28.246-67.528 71.898-29.668c-1.043 8.055-3.031 16.04-6.27 23.696-12.699 30.058-42.456 49.96-65.183 61.355zm-338.074-5.336a126.526 126.526 0 0 1-9.805-2.343l103.766-76.063 85.441 16.652c-31.125 24.524-106.87 75.965-179.402 61.754zm-94.832-58.66c-22.192-23.918-38.457-49.492-47.797-65.867l108.73 21.2zm19.203-125.09 45.492 62.051L71.062 83.164c13.778-10.879 36.52-27.21 63.942-40.719zm72.617 67.34-55.152-75.23c16.511-6.785 34.234-12.125 52.402-14.5l76.297 104.062zm-5.836 17.965 77.762 15.156-99.8 73.153c-18.821-8.692-35.759-21.188-50.579-35.079zm254.406 183.086c-33.8 18.008-50.351 32.152-58.203 49.406-8.433 18.528-5.343 38.414-1.066 65.938 2.527 16.23-16.762 46.453-42.035 57.277-9.352 4.004-16.012 3.531-19.805-1.41-7.45-9.695-7.246-39.04-7.086-62.613.223-32.618.418-60.786-13.039-72.758-4.84-4.305-11.031-6.125-17.91-5.281-5.895.734-11.875 1.687-17.652 2.609-34.465 5.492-56.153 7.691-67.387-15.406-18.203-37.41 18.644-65.121 35.332-75.297 3.398-2.07 6.55-4.512 9.48-7.23 40.332-4.821 78.442-22.126 112.403-43.801 40.718 24.328 71.976 62.828 86.968 108.566zm0 0" fill="#00fc8b" data-original="#000000" class=""></path></g></svg>