<svg xmlns="http://www.w3.org/2000/svg" version="1.1" xmlns:xlink="http://www.w3.org/1999/xlink" xmlns:svgjs="http://svgjs.com/svgjs" width="512" height="512" x="0" y="0" viewBox="0 0 512 512" style="enable-background:new 0 0 512 512" xml:space="preserve" class=""><g><path d="M237.42 504.5h151.26c2.76 0 5-2.24 5-5v-24.04c0-2.76-2.24-5-5-5H121.01c-2.77 0-5 2.24-5 5v24.04c0 2.76 2.23 5 5 5h81.41M38.321 114.46H17.5c-5.52 0-10 4.48-10 10v280c0 5.52 4.48 10 10 10h477c5.52 0 10-4.48 10-10v-280c0-5.52-4.48-10-10-10h-20.216" style="stroke-width:15;stroke-linecap:round;stroke-linejoin:round;stroke-miterlimit:10;" fill="none" stroke="#00fc8b" stroke-width="15" stroke-linecap="round" stroke-linejoin="round" stroke-miterlimit="10" data-original="#000000" class=""></path><path d="M40.84 199.95V23.81c0-9.01 7.3-16.31 16.31-16.31h247.93m35 0h114.77c9.01 0 16.31 7.3 16.31 16.31v307.02c0 9.01-7.3 16.31-16.31 16.31H57.15c-9.01 0-16.31-7.3-16.31-16.31v-95.88" style="stroke-width:15;stroke-linecap:round;stroke-linejoin:round;stroke-miterlimit:10;" fill="none" stroke="#00fc8b" stroke-width="15" stroke-linecap="round" stroke-linejoin="round" stroke-miterlimit="10" data-original="#000000" class=""></path><path d="m128.178 188.48-27.331-27.33 27.331-27.331M383.822 188.48l27.331-27.33-27.331-27.331M468.447 71.145H43.553M143.651 39.322h0M109.531 39.322h0M75.411 39.322h0M355.329 469.207l-28.516-53.23M186.378 470.059c18.92-19.933 44.271-29.889 69.622-29.889 25.268 0 50.536 9.892 69.436 29.694M185.187 415.977l-28.813 53.786M501.147 378.5H428.65M393.65 378.5H9.5M353.655 343.515v-28.331a3.164 3.164 0 0 0-2.762-3.138l-11.917-1.528c-1.249-.16-2.268-1.051-2.633-2.256a83.398 83.398 0 0 0-6.318-15.242c-.595-1.111-.504-2.462.266-3.459l7.348-9.511a3.165 3.165 0 0 0-.266-4.172l-24.642-24.642a3.163 3.163 0 0 0-4.172-.266l-9.511 7.348c-.997.77-2.348.861-3.459.266a83.457 83.457 0 0 0-15.242-6.318c-1.205-.365-2.096-1.384-2.256-2.633l-1.528-11.917a3.164 3.164 0 0 0-3.138-2.762h-34.849a3.164 3.164 0 0 0-3.138 2.762l-1.528 11.917c-.16 1.249-1.051 2.268-2.256 2.633a83.398 83.398 0 0 0-15.242 6.318c-1.111.595-2.462.504-3.459-.266l-9.511-7.348a3.165 3.165 0 0 0-4.172.266l-24.642 24.642a3.163 3.163 0 0 0-.266 4.172l7.348 9.511c.77.997.861 2.348.266 3.459a83.457 83.457 0 0 0-6.318 15.242c-.365 1.205-1.384 2.096-2.633 2.256l-11.917 1.528a3.165 3.165 0 0 0-2.762 3.138v28.99" style="stroke-width:15;stroke-linecap:round;stroke-linejoin:round;stroke-miterlimit:10;" fill="none" stroke="#00fc8b" stroke-width="15" stroke-linecap="round" stroke-linejoin="round" stroke-miterlimit="10" data-original="#000000" class=""></path><path d="M203.123 344.175a54.343 54.343 0 0 1-1.239-11.566c0-29.888 24.229-54.116 54.116-54.116 29.888 0 54.116 24.229 54.116 54.116 0 3.736-.379 7.383-1.099 10.906M222.719 133.611a33.054 33.054 0 0 0-18.568-5.672c-18.341 0-33.21 14.869-33.21 33.21s14.869 33.21 33.21 33.21c7.449 0 13.576-2.452 18.226-6.594a26.632 26.632 0 0 0 2.695-2.781M242.967 161.15h35.669M260.802 178.984v-35.669M305.389 161.15h35.669M323.224 178.984v-35.669" style="stroke-width:15;stroke-linecap:round;stroke-linejoin:round;stroke-miterlimit:10;" fill="none" stroke="#00fc8b" stroke-width="15" stroke-linecap="round" stroke-linejoin="round" stroke-miterlimit="10" data-original="#000000" class=""></path></g></svg>