<svg width="90" height="50.689" viewBox="0 0 90 50.689" xmlns="http://www.w3.org/2000/svg"><g id="svgGroup" stroke-linecap="round" fill-rule="evenodd" font-size="9pt" stroke="#00fc8b" stroke-width="0.25mm" fill="#00fc8b" style="stroke:#00fc8b;stroke-width:0.25mm;fill:#00fc8b"><path d="M 89.6 24.6 L 49.9 0.1 Q 49.547 -0.077 49.194 0.059 A 1.045 1.045 0 0 0 49.1 0.1 A 0.692 0.692 0 0 0 48.806 0.364 Q 48.73 0.492 48.708 0.661 A 1.1 1.1 0 0 0 48.7 0.8 L 48.7 16.6 Q 48.7 17.1 49.1 17.3 L 65.2 26.2 L 65.2 24.8 L 49.1 33.6 A 0.692 0.692 0 0 0 48.806 33.864 Q 48.73 33.992 48.708 34.161 A 1.1 1.1 0 0 0 48.7 34.3 L 48.7 49.8 A 0.696 0.696 0 0 0 48.953 50.341 A 1.113 1.113 0 0 0 49.1 50.45 Q 49.5 50.7 49.9 50.5 L 89.6 26 A 0.692 0.692 0 0 0 89.894 25.736 Q 89.97 25.608 89.992 25.439 A 1.1 1.1 0 0 0 90 25.3 Q 90 24.8 89.6 24.6 Z M 0.4 26.1 L 40.1 50.6 Q 40.424 50.762 40.747 50.629 A 1.017 1.017 0 0 0 40.9 50.55 A 1.027 1.027 0 0 0 41.111 50.379 A 0.682 0.682 0 0 0 41.3 49.9 L 41.3 34.1 Q 41.3 33.6 40.9 33.4 L 24.8 24.5 L 24.8 25.9 L 40.9 17.1 A 0.692 0.692 0 0 0 41.194 16.836 Q 41.27 16.708 41.292 16.539 A 1.1 1.1 0 0 0 41.3 16.4 L 41.3 0.9 Q 41.3 0.4 40.9 0.2 Q 40.547 0.023 40.194 0.159 A 1.045 1.045 0 0 0 40.1 0.2 L 0.4 24.7 A 0.692 0.692 0 0 0 0.106 24.964 Q 0.03 25.092 0.008 25.261 A 1.1 1.1 0 0 0 0 25.4 Q 0 25.9 0.4 26.1 Z M 49.1 1.5 L 88.8 26 L 88.8 24.6 L 49.1 49.1 L 50.3 49.8 L 50.3 34.3 L 49.9 35 L 66 26.2 A 0.692 0.692 0 0 0 66.294 25.936 Q 66.37 25.808 66.392 25.639 A 1.1 1.1 0 0 0 66.4 25.5 Q 66.4 25 66 24.8 L 49.9 15.9 L 50.3 16.6 L 50.3 0.8 L 49.1 1.5 Z M 40.9 49.2 L 1.2 24.7 L 1.2 26.1 L 40.9 1.6 L 39.7 0.9 L 39.7 16.4 L 40.1 15.7 L 24 24.5 A 0.692 0.692 0 0 0 23.706 24.764 Q 23.63 24.892 23.608 25.061 A 1.1 1.1 0 0 0 23.6 25.2 Q 23.6 25.7 24 25.9 L 40.1 34.8 L 39.7 34.1 L 39.7 49.9 L 40.9 49.2 Z M 77.3 24.7 L 55.3 37.7 L 56.1 39.1 L 78.1 26.1 A 0.692 0.692 0 0 0 78.394 25.836 Q 78.47 25.708 78.492 25.539 A 1.1 1.1 0 0 0 78.5 25.4 Q 78.5 24.9 78.1 24.7 L 56.1 11.7 L 55.3 13.1 L 77.3 26.1 A 0.399 0.399 0 0 0 77.359 26.124 Q 77.67 26.222 77.697 25.537 A 3.483 3.483 0 0 0 77.7 25.4 A 3.093 3.093 0 0 0 77.692 25.169 Q 77.644 24.537 77.309 24.695 A 0.48 0.48 0 0 0 77.3 24.7 Z M 12.7 26 L 34.7 13 L 33.9 11.6 L 11.9 24.6 A 0.692 0.692 0 0 0 11.606 24.864 Q 11.53 24.992 11.508 25.161 A 1.1 1.1 0 0 0 11.5 25.3 Q 11.5 25.8 11.9 26 L 33.9 39 L 34.7 37.6 L 12.7 24.6 A 0.399 0.399 0 0 0 12.641 24.576 Q 12.33 24.478 12.303 25.163 A 3.483 3.483 0 0 0 12.3 25.3 A 3.093 3.093 0 0 0 12.308 25.531 Q 12.356 26.163 12.691 26.005 A 0.48 0.48 0 0 0 12.7 26 Z M 12.3 24.5 L 0.8 24.6 L 0.8 26.2 L 12.3 26.1 L 24.4 26 L 24.4 24.4 L 12.3 24.5 Z M 77.7 26.2 L 89.2 26.1 L 89.2 24.5 L 77.7 24.6 L 65.6 24.7 L 65.6 26.3 L 77.7 26.2 Z M 55.3 11.7 L 49.1 15.9 L 49.9 17.3 L 56.1 13.1 A 1.111 1.111 0 0 0 56.331 12.898 A 0.888 0.888 0 0 0 56.5 12.6 A 0.629 0.629 0 0 0 56.533 12.4 Q 56.533 12.273 56.479 12.145 A 0.888 0.888 0 0 0 56.4 12 L 50.2 0.4 L 48.8 1.2 L 55 12.8 Q 55.2 13 55.35 12.25 A 6.339 6.339 0 0 0 55.372 12.136 Q 55.477 11.557 55.323 11.679 A 0.277 0.277 0 0 0 55.3 11.7 Z M 34.7 39 L 40.9 34.8 L 40.1 33.4 L 33.9 37.6 A 0.947 0.947 0 0 0 33.717 37.757 A 0.674 0.674 0 0 0 33.55 38.1 A 1.215 1.215 0 0 0 33.533 38.3 Q 33.533 38.498 33.599 38.697 A 1.428 1.428 0 0 0 33.6 38.7 L 39.8 50.3 L 41.2 49.5 L 35 37.9 A 0.136 0.136 0 0 0 34.984 37.875 Q 34.897 37.768 34.744 38.253 A 5.647 5.647 0 0 0 34.7 38.4 A 5.396 5.396 0 0 0 34.666 38.524 Q 34.519 39.091 34.7 39 Z M 55 38 L 48.8 49.4 L 50.2 50.2 L 56.4 38.8 A 0.867 0.867 0 0 0 56.489 38.631 Q 56.533 38.516 56.533 38.4 A 0.629 0.629 0 0 0 56.5 38.2 A 0.915 0.915 0 0 0 56.23 37.799 A 1.208 1.208 0 0 0 56.1 37.7 L 49.9 33.6 L 49.1 35 L 55.3 39.1 A 0.136 0.136 0 0 0 55.323 39.109 Q 55.491 39.158 55.35 38.5 Q 55.2 37.8 55 38 Z M 35 12.7 L 41.2 1.3 L 39.8 0.5 L 33.6 11.9 A 1.26 1.26 0 0 0 33.533 12.294 Q 33.533 12.297 33.533 12.3 A 1.215 1.215 0 0 0 33.55 12.5 Q 33.6 12.8 33.9 13 L 40.1 17.1 L 40.9 15.7 L 34.7 11.6 A 0.292 0.292 0 0 0 34.676 11.578 Q 34.526 11.458 34.673 12.046 A 7.331 7.331 0 0 0 34.7 12.15 Q 34.896 12.884 34.996 12.708 A 0.173 0.173 0 0 0 35 12.7 Z" vector-effect="non-scaling-stroke"/></g></svg>